<mxfile host="app.diagrams.net" modified="2024-06-25T05:59:50.330Z" agent="Mozilla/5.0 (X11; Ubuntu; Linux x86_64; rv:126.0) Gecko/20100101 Firefox/126.0" etag="1c0T5WW5_n6mnETrGyHe" version="24.3.1" type="device">
  <diagram name="Page-1" id="H3UYfALUxwyu6xAWviBU">
    <mxGraphModel dx="2004" dy="1155" grid="1" gridSize="10" guides="1" tooltips="1" connect="1" arrows="1" fold="1" page="1" pageScale="1" pageWidth="850" pageHeight="1100" math="0" shadow="0">
      <root>
        <mxCell id="0" />
        <mxCell id="1" parent="0" />
        <mxCell id="MmZ8_Jl7VUvqjtLt9yZf-3" value="" style="edgeStyle=orthogonalEdgeStyle;rounded=0;orthogonalLoop=1;jettySize=auto;html=1;" edge="1" parent="1" source="MmZ8_Jl7VUvqjtLt9yZf-1" target="MmZ8_Jl7VUvqjtLt9yZf-2">
          <mxGeometry relative="1" as="geometry" />
        </mxCell>
        <mxCell id="MmZ8_Jl7VUvqjtLt9yZf-1" value="&lt;div&gt;frontend ui&lt;/div&gt;&lt;div&gt;&amp;nbsp;input speech output speech&lt;br&gt;&lt;/div&gt;" style="rounded=0;whiteSpace=wrap;html=1;rotation=90;" vertex="1" parent="1">
          <mxGeometry x="-5" y="225" width="210" height="60" as="geometry" />
        </mxCell>
        <mxCell id="MmZ8_Jl7VUvqjtLt9yZf-5" value="" style="edgeStyle=orthogonalEdgeStyle;rounded=0;orthogonalLoop=1;jettySize=auto;html=1;" edge="1" parent="1" source="MmZ8_Jl7VUvqjtLt9yZf-2" target="MmZ8_Jl7VUvqjtLt9yZf-4">
          <mxGeometry relative="1" as="geometry" />
        </mxCell>
        <mxCell id="MmZ8_Jl7VUvqjtLt9yZf-2" value="speech to text" style="whiteSpace=wrap;html=1;rounded=0;" vertex="1" parent="1">
          <mxGeometry x="340" y="240" width="120" height="60" as="geometry" />
        </mxCell>
        <mxCell id="MmZ8_Jl7VUvqjtLt9yZf-7" value="" style="edgeStyle=orthogonalEdgeStyle;rounded=0;orthogonalLoop=1;jettySize=auto;html=1;" edge="1" parent="1" source="MmZ8_Jl7VUvqjtLt9yZf-4" target="MmZ8_Jl7VUvqjtLt9yZf-6">
          <mxGeometry relative="1" as="geometry" />
        </mxCell>
        <mxCell id="MmZ8_Jl7VUvqjtLt9yZf-9" value="" style="edgeStyle=orthogonalEdgeStyle;rounded=0;orthogonalLoop=1;jettySize=auto;html=1;" edge="1" parent="1" source="MmZ8_Jl7VUvqjtLt9yZf-4" target="MmZ8_Jl7VUvqjtLt9yZf-8">
          <mxGeometry relative="1" as="geometry" />
        </mxCell>
        <mxCell id="MmZ8_Jl7VUvqjtLt9yZf-4" value="gpt 4-0/claude 3.5" style="whiteSpace=wrap;html=1;rounded=0;" vertex="1" parent="1">
          <mxGeometry x="540" y="240" width="120" height="60" as="geometry" />
        </mxCell>
        <mxCell id="MmZ8_Jl7VUvqjtLt9yZf-11" value="" style="edgeStyle=orthogonalEdgeStyle;rounded=0;orthogonalLoop=1;jettySize=auto;html=1;entryX=1;entryY=0.5;entryDx=0;entryDy=0;" edge="1" parent="1" source="MmZ8_Jl7VUvqjtLt9yZf-6" target="MmZ8_Jl7VUvqjtLt9yZf-1">
          <mxGeometry relative="1" as="geometry">
            <mxPoint x="580" y="620" as="targetPoint" />
            <Array as="points">
              <mxPoint x="580" y="580" />
              <mxPoint x="581" y="580" />
              <mxPoint x="581" y="640" />
              <mxPoint x="100" y="640" />
            </Array>
          </mxGeometry>
        </mxCell>
        <mxCell id="MmZ8_Jl7VUvqjtLt9yZf-6" value="db query necessary items" style="whiteSpace=wrap;html=1;rounded=0;" vertex="1" parent="1">
          <mxGeometry x="520" y="480" width="120" height="60" as="geometry" />
        </mxCell>
        <mxCell id="MmZ8_Jl7VUvqjtLt9yZf-14" value="" style="edgeStyle=orthogonalEdgeStyle;rounded=0;orthogonalLoop=1;jettySize=auto;html=1;entryX=1;entryY=0.5;entryDx=0;entryDy=0;" edge="1" parent="1" source="MmZ8_Jl7VUvqjtLt9yZf-8" target="MmZ8_Jl7VUvqjtLt9yZf-1">
          <mxGeometry relative="1" as="geometry">
            <mxPoint x="740" y="620" as="targetPoint" />
            <Array as="points">
              <mxPoint x="740" y="590" />
              <mxPoint x="741" y="590" />
              <mxPoint x="741" y="790" />
              <mxPoint x="100" y="790" />
            </Array>
          </mxGeometry>
        </mxCell>
        <mxCell id="MmZ8_Jl7VUvqjtLt9yZf-8" value="text with feedback or questions" style="whiteSpace=wrap;html=1;rounded=0;" vertex="1" parent="1">
          <mxGeometry x="680" y="480" width="120" height="60" as="geometry" />
        </mxCell>
      </root>
    </mxGraphModel>
  </diagram>
</mxfile>
